<svg xmlns="http://www.w3.org/2000/svg" viewBox="0 0 512 512">
  <circle cx="256" cy="256" r="256" fill="hotpink"/>
  <g transform="translate(321,299) rotate(-12)">
    <circle cx="55"  cy="24" r="30" fill="none" stroke="white" stroke-width="16"/>
    <circle cx="55"  cy="24" r="9"  fill="white"/>
    <circle cx="-62" cy="24" r="23" fill="none" stroke="white" stroke-width="13"/>
    <circle cx="-62" cy="24" r="7"  fill="white"/>
    <rect x="-76" y="2"   width="138" height="18" rx="9" fill="white"/>
    <line  x1="-42" y1="2" x2="-60" y2="-47" stroke="white" stroke-width="16" stroke-linecap="round"/>
    <rect x="-82" y="-54" width="52"  height="14" rx="7" fill="white"/>
  </g>
  <g transform="translate(256,229) rotate(-12)" opacity="0.78">
    <circle cx="55"  cy="24" r="30" fill="none" stroke="white" stroke-width="16"/>
    <circle cx="55"  cy="24" r="9"  fill="white"/>
    <circle cx="-62" cy="24" r="23" fill="none" stroke="white" stroke-width="13"/>
    <circle cx="-62" cy="24" r="7"  fill="white"/>
    <rect x="-76" y="2"   width="138" height="18" rx="9" fill="white"/>
    <line  x1="-42" y1="2" x2="-60" y2="-47" stroke="white" stroke-width="16" stroke-linecap="round"/>
    <rect x="-82" y="-54" width="52"  height="14" rx="7" fill="white"/>
  </g>
  <g transform="translate(191,159) rotate(-12)" opacity="0.55">
    <circle cx="55"  cy="24" r="30" fill="none" stroke="white" stroke-width="16"/>
    <circle cx="55"  cy="24" r="9"  fill="white"/>
    <circle cx="-62" cy="24" r="23" fill="none" stroke="white" stroke-width="13"/>
    <circle cx="-62" cy="24" r="7"  fill="white"/>
    <rect x="-76" y="2"   width="138" height="18" rx="9" fill="white"/>
    <line  x1="-42" y1="2" x2="-60" y2="-47" stroke="white" stroke-width="16" stroke-linecap="round"/>
    <rect x="-82" y="-54" width="52"  height="14" rx="7" fill="white"/>
  </g>
</svg>
