<svg xmlns="http://www.w3.org/2000/svg" viewBox="0 0 80 100" width="80" height="100">
  <path d="M40,0 C17.9,0 0,17.9 0,40 C0,62.1 40,100 40,100 C40,100 80,62.1 80,40 C80,17.9 62.1,0 40,0 Z" fill="#00DD00" stroke="#009900" stroke-width="1.5"/>
  <!-- handlebar -->
  <rect x="46" y="28" width="12" height="3" rx="1.5" fill="white"/>
  <rect x="54" y="25" width="3" height="8" rx="1.5" fill="white"/>
  <!-- deck -->
  <rect x="28" y="46" width="26" height="4" rx="2" fill="white"/>
  <!-- stem -->
  <rect x="50" y="29" width="3" height="17" rx="1.5" fill="white" transform="rotate(-10, 51, 38)"/>
  <!-- wheels -->
  <circle cx="30" cy="52" r="7" fill="none" stroke="white" stroke-width="2.5"/>
  <circle cx="30" cy="52" r="2" fill="white"/>
  <circle cx="54" cy="52" r="6" fill="none" stroke="white" stroke-width="2.5"/>
  <circle cx="54" cy="52" r="2" fill="white"/>
</svg>
