<svg xmlns="http://www.w3.org/2000/svg" viewBox="0 0 80 100" width="80" height="100">
  <path d="M40,0 C17.9,0 0,17.9 0,40 C0,62.1 40,100 40,100 C40,100 80,62.1 80,40 C80,17.9 62.1,0 40,0 Z" fill="#00DD00" stroke="#009900" stroke-width="1.5"/>
  <!-- wheels -->
  <circle cx="24" cy="50" r="10" fill="none" stroke="white" stroke-width="2.5"/>
  <circle cx="24" cy="50" r="2.5" fill="white"/>
  <circle cx="56" cy="50" r="10" fill="none" stroke="white" stroke-width="2.5"/>
  <circle cx="56" cy="50" r="2.5" fill="white"/>
  <!-- frame -->
  <line x1="24" y1="50" x2="40" y2="30" stroke="white" stroke-width="2.5" stroke-linecap="round"/>
  <line x1="40" y1="30" x2="56" y2="50" stroke="white" stroke-width="2.5" stroke-linecap="round"/>
  <line x1="24" y1="50" x2="40" y2="50" stroke="white" stroke-width="2.5" stroke-linecap="round"/>
  <!-- seat post -->
  <line x1="40" y1="30" x2="40" y2="40" stroke="white" stroke-width="2.5" stroke-linecap="round"/>
  <rect x="35" y="37" width="10" height="3" rx="1.5" fill="white"/>
  <!-- fork / handlebar post -->
  <line x1="52" y1="30" x2="56" y2="40" stroke="white" stroke-width="2.5" stroke-linecap="round"/>
  <rect x="47" y="27" width="10" height="3" rx="1.5" fill="white"/>
</svg>
